<svg xmlns="http://www.w3.org/2000/svg" width="256" height="256"><path fill-opacity=".039" d="M0 128.004v128.004l128.25-.254 128.25-.254.254-127.75L257.008 0H0v128.004m.485.496c0 70.4.119 99.053.265 63.672.146-35.38.146-92.98 0-128C.604 29.153.485 58.1.485 128.5" fill="#1976D2" fill-rule="evenodd"/><path fill-opacity=".098" d="M45.574 46.514C43.311 48.956 42 52.964 42 57.438c0 1.203-1.366 3.497-3.037 5.097-5.21 4.992-6.332 11.099-6.334 34.465-.001 21.569 1.378 37.37 3.944 45.173 1.988 6.045 8.363 11.981 15.366 14.307 4.016 1.334 7.353 1.639 13.921 1.276 4.752-.263 9.54-.827 10.64-1.253 1.1-.426-.079.64-2.619 2.369-6.246 4.25-10.064 9.977-10.638 15.955-.371 3.86.126 6.042 2.557 11.232C70.509 196.111 74.654 199 84.369 199c10.378 0 20.298-7.579 26.722-20.418l3.044-6.082-.514 4.5c-1.585 13.882-1.725 17.71-.738 20.25 1.442 3.715 4.619 3.613 6.597-.211 1.765-3.414 4.506-15.672 4.55-20.354.042-4.403 1.523-1.55 2.296 4.425 2.128 16.434 12.619 27.89 25.539 27.89 6.211 0 9.37-1.507 14.281-6.814 5.809-6.276 7.085-8.788 7.085-13.943 0-5.877-1.958-10.724-6.356-15.732-1.856-2.115-2.925-3.635-2.375-3.38.55.256 3.523 1.684 6.606 3.174 17.381 8.401 32.481 4.551 39.86-10.164 6.753-13.466 16.879-44.152 19.046-57.716 1.162-7.273.213-12.69-2.894-16.528-1.52-1.877-1.764-3.44-1.347-8.631.456-5.681.26-6.607-1.881-8.914-2.244-2.417-2.816-2.541-9.39-2.032-8.759.677-20.206 4.388-32.5 10.534-9.256 4.627-36.239 20.988-42.75 25.921l-3.25 2.462v-2.418c0-1.331-.446-2.865-.99-3.409-.654-.654-.654-2.164 0-4.444 1.618-5.642 1.147-22.67-.842-30.466-1.471-5.763-2.174-7.056-3.977-7.32-2.58-.376-2.532-1.126-.691 10.82 1.673 10.856 1.931 24.786.5 27-.76 1.176-.973.927-.985-1.154-.022-3.782-4.31-15.966-7.595-21.579-1.534-2.622-5.037-7.146-7.784-10.053-4.255-4.504-5.198-5.08-6.379-3.9-1.18 1.181-.541 2.554 4.323 9.286 6.156 8.519 10.639 17.413 12.496 24.788.949 3.77.899 5.179-.27 7.594l-1.436 2.964-3.655-4.723c-7.275-9.401-24.394-27.773-32.217-34.575C72.946 53.864 56.483 44 50.369 44c-1.355 0-3.513 1.131-4.795 2.514M40.32 80c0 3.575.182 5.037.403 3.25.222-1.787.222-4.713 0-6.5-.221-1.787-.403-.325-.403 3.25m-.96 17c0 5.225.169 7.362.375 4.75s.206-6.888 0-9.5-.375-.475-.375 4.75m183.267 1c-1.745 7.041-5.534 26.426-5.225 26.735.473.473 4.328-13.904 5.661-21.12 1.068-5.777.719-10.274-.436-5.615m-6.548 29.583c.048 1.165.285 1.402.604.605.289-.722.253-1.585-.079-1.917-.332-.332-.568.258-.525 1.312M.662 199.5c1.311 16.969 6.709 29.929 16.47 39.547 9.373 9.234 20.591 14.146 36.368 15.923 11.869 1.337 137.131 1.337 149 0 15.777-1.777 26.995-6.689 36.368-15.923 9.198-9.063 16.075-24.738 16.117-36.738.008-2.305.465-4.469 1.015-4.809.55-.34 1-1.806 1-3.259 0-4.417-1.645-1.197-2.942 5.759-3.834 20.561-20.042 37.182-41.671 42.733-6.295 1.615-13.553 1.767-84.387 1.767-86.818 0-84.155.197-98.387-7.263-14.208-7.448-23.947-20.471-27.749-37.106L.121 192.5l.541 7m-.467-4c.02 1.65.244 2.204.498 1.231.254-.973.237-2.323-.037-3-.274-.677-.481.119-.461 1.769" fill="#1976D2" fill-rule="evenodd"/><path fill-opacity=".765" d="M44.989 48.25c-1.09 1.788-1.983 4.753-1.985 6.591-.003 2.37-1.022 4.531-3.508 7.435-1.927 2.251-4.008 5.698-4.623 7.659-1.717 5.468-2.265 38.439-.886 53.329 1.938 20.941 4.487 26.366 14.755 31.408 5.158 2.533 6.749 2.818 15.258 2.733 5.225-.052 10.85-.606 12.5-1.23l3-1.136-3 2.231c-6.629 4.928-11.153 10.419-12.475 15.141-1.224 4.371-1.148 5.191.965 10.417 3.615 8.942 5.773 11.879 10.363 14.101 8.213 3.975 18.161 1.782 26.003-5.734 5.229-5.011 8.417-10.212 11.746-19.163 3.262-8.773 3.357-8.536 1.384 3.468-1.942 11.822-1.955 21.866-.03 23.464 3.992 3.313 6.968-4.848 10.197-27.964l.768-5.5.684 9.5c.923 12.835 3.692 19.927 10.394 26.629 7.024 7.025 14.494 9.072 21.864 5.993 3.758-1.571 11.544-9.406 13.342-13.427 2.746-6.143.977-13.888-4.86-21.272-2.248-2.844-3.695-4.982-3.216-4.752.479.23 4.001 1.947 7.826 3.814 5.716 2.79 8.387 3.467 15 3.799 7.349.369 8.521.154 13.545-2.483 4.279-2.247 6.228-4.1 8.777-8.344 7.717-12.852 19.786-49.552 20.92-63.614.524-6.498.329-7.603-2.121-11.986-2.249-4.024-2.595-5.585-2.075-9.364 1.399-10.17-3.135-13.119-16.06-10.449-9.465 1.955-17.173 4.788-28.441 10.454-10.234 5.146-39.47 23.207-43.076 26.611l-2.576 2.432-.158-3.771c-.087-2.073-.053-5.795.074-8.27.633-12.257-.03-24.985-1.612-30.946-1.95-7.345-2.256-7.85-3.813-6.293-.836.836-.687 4.411.578 13.853C132.025 85.607 131.853 99 130.092 99c-.371 0-1.418-3.165-2.326-7.034-2.914-12.419-10.738-26.097-17.439-30.488-4.481-2.935-4.338-.153.308 6.022 6.328 8.408 10.837 16.849 13.271 24.838 1.873 6.147 1.932 7.055.589 8.973-.822 1.174-1.495 2.997-1.495 4.051 0 1.388-.724.843-2.62-1.972-6.921-10.272-29.66-34.117-41.011-43.004-10.698-8.376-23.686-15.347-28.634-15.369-3.182-.014-4.071.486-5.746 3.233m-4.523 23.457c-1.062 2.439-1.89 43.998-.856 42.994.7-.681 2.5-43.664 1.862-44.494-.124-.161-.576.514-1.006 1.5m179.653 35.044c-1.31 7.012-3.688 17.421-5.284 23.131-1.597 5.711-2.691 10.595-2.432 10.854.573.574 7.953-22.72 10.053-31.736 1.611-6.914 2.039-15.001.794-14.999-.412 0-1.822 5.738-3.131 12.75M116.71 153c-.287 1.1-.115 2 .384 2 .498 0 .906-.9.906-2s-.173-2-.383-2c-.211 0-.619.9-.907 2m10 1c-.287 1.1-.115 2 .384 2 .498 0 .906-.9.906-2s-.173-2-.383-2c-.211 0-.619.9-.907 2" fill="#1976D2" fill-rule="evenodd"/><path fill-opacity=".961" d="M46 58.118c-4.59 1.821-9.005 7.103-10.756 12.867-3.104 10.217-1.893 57.13 1.816 70.336 1.584 5.64 7.151 11.24 13.555 13.636 6.469 2.421 17.345 2.719 25.167.689 2.87-.744 5.191-1.081 5.157-.75-.034.332-1.946 1.972-4.25 3.645-8.093 5.874-12.335 18.988-9.197 28.434 2.595 7.815 7.6 11.225 16.473 11.225 12.881 0 22.864-9.378 29.075-27.315 2.695-7.784 4.908-11.984 3.627-6.885-1.514 6.03-3.962 29.753-3.328 32.25.451 1.772 1.365 2.75 2.571 2.75 2.829 0 4.978-6.556 7.201-21.969 2.355-16.323 2.706-17.447 2.818-9.031.328 24.711 10.34 40.231 25.952 40.231 9.332 0 15.094-5.696 17.08-16.883 1.393-7.85.069-14.289-4.161-20.235-1.716-2.413-2.711-4.192-2.21-3.955.5.238 3.894 1.891 7.541 3.675 8.999 4.403 17.182 5.863 24.133 4.307 8.055-1.803 12.279-5.862 17.272-16.6 7.332-15.766 15.671-41.879 17.948-56.198 1.354-8.517-3.141-17.079-10.669-20.323-8.003-3.449-18.075-2.265-37.69 4.43-9.409 3.211-34.955 14.466-35.748 15.75-1.621 2.623 1.925 2.317 9.623-.83 31.846-13.022 53.993-18.026 61.8-13.964 3.69 1.92 6.808 5.548 7.582 8.822 1.329 5.623-7.061 35.555-15.632 55.773-4.424 10.434-6.893 14.471-9.805 16.03-3.763 2.013-11.355 2.824-16.945 1.808-10.464-1.9-16.545-5.759-39.574-25.11-3.87-3.252-7.476-5.539-8.259-5.239-.955.367-1.197.031-.772-1.075 1.569-4.091 2.773-16.462 2.131-21.914-.388-3.3-.651-7.736-.584-9.859.067-2.122-.352-4.43-.931-5.128-.74-.891-.728-2.126.038-4.141 2.869-7.547-.157-37.372-3.792-37.372-1.006 0-1.263.796-.886 2.75 3.262 16.939 3.302 39.256.064 36.018-.311-.31-1.23-3.416-2.043-6.901-2.146-9.2-7.635-19.877-13.537-26.336-7.444-8.144-8.243-5.575-1.269 4.077 9.143 12.655 15.068 27.513 12.568 31.517-.635 1.017-1.154 2.597-1.154 3.512s-1.127 3.966-2.504 6.781c-2.631 5.379-5.449 16.848-5.479 22.301-.012 2.322-.402 3.071-1.398 2.688-.759-.291-7.506 2.184-14.993 5.501-19.819 8.78-25.865 10.421-36.517 9.912-7.278-.348-9.536-.88-13.436-3.166-6.456-3.783-7.782-6.257-8.8-16.421-.481-4.803-1.112-9.366-1.403-10.14-.986-2.628-.59-44.935.458-48.825 1.666-6.187 5.968-9.561 12.821-10.054 5.266-.379 6.51-.025 14.751 4.198 8.041 4.121 25.324 16.131 41.001 28.494 3.864 3.047 5.908 4.085 6.626 3.367.719-.719-1.956-3.706-8.673-9.686-16.731-14.896-36.169-28.375-45.353-31.449-4.099-1.372-11.666-1.382-15.101-.02m64.25 82.912c-4.49 1.994-5.934 3.561-1.853 2.009 2.307-.877 3.603-.51 3.603 1.019 0 .399-6.129 3.75-13.621 7.447-20.751 10.24-25.36 15.651-25.373 29.79-.005 4.781.412 6.214 2.382 8.184 5.303 5.303 14.536 4.092 22.346-2.93 5.236-4.708 9.907-12.544 14.311-24.008 1.535-3.998 3.298-7.041 4.079-7.041 1.876 0 3.155-3.459 1.857-5.023-.578-.696-1.322-3.563-1.655-6.371-.332-2.808-.879-5.074-1.215-5.035-.336.038-2.523.92-4.861 1.959m20.938 4.327c-.668 1.846-2.108 4.166-3.201 5.155-2.307 2.087-2.686 6.488-.559 6.488 1.005 0 1.599 1.703 2.004 5.75 1.538 15.368 2.727 21.044 5.668 27.061 4.82 9.859 12.881 14.671 20.414 12.184 4.653-1.535 6.688-5.639 7.274-14.668.671-10.341-1.261-13.705-15.941-27.77-6.764-6.48-11.709-11.971-11.332-12.582.456-.737 1.521-.544 3.328.604 2.281 1.449 2.169 1.173-.789-1.946-1.896-1.998-3.943-3.633-4.549-3.633-.607 0-1.649 1.511-2.317 3.357" fill="#1976D2" fill-rule="evenodd"/></svg>