<svg xmlns="http://www.w3.org/2000/svg" width="256" height="256"><path fill-opacity=".016" d="M0 128.004v128.004l128.25-.254 128.25-.254.254-127.75L257.008 0H0v128.004m.485.496c0 70.4.119 99.053.265 63.672.146-35.38.146-92.98 0-128C.604 29.153.485 58.1.485 128.5" fill="#1976D2" fill-rule="evenodd"/><path fill-opacity=".179" d="M49.5.678c-18.235 2.539-35.982 15.03-43.334 30.5C.084 43.978 0 45.296 0 128c0 82.704.084 84.022 6.166 96.822 4.144 8.718 14.025 18.983 22.592 23.469 14.49 7.586 9.299 7.209 99.242 7.209 75.321 0 80.886-.118 86.5-1.84 20.577-6.309 35.715-22.089 39.486-41.16.652-3.3 1.598-6.781 2.1-7.736 1.121-2.13 1.248-155.088.128-154.396-.432.267-1.351-2.494-2.042-6.136C250.509 24.919 235.888 9.295 215 2.369 209.881.672 204.067.536 131 .403 87.825.324 51.15.448 49.5.678M.476 128c0 42.625.123 60.063.274 38.75.15-21.312.15-56.187 0-77.5C.599 67.938.476 85.375.476 128m57.84-57.111c-5.734 2.678-7.331 6.265-8.461 19.009-.95 10.71.294 38.508 2.072 46.315 2.342 10.282 9.604 15.307 22.046 15.257 6.613-.027 19.972-2.858 18.838-3.993-.222-.222-2.633.293-5.358 1.144-15.666 4.895-30.361-.139-33.406-11.445-1.739-6.461-3.292-33.213-2.59-44.615 1.06-17.198 3.61-21.061 13.898-21.061 7.453 0 13.172 2.571 26.812 12.055 5.133 3.569 7.758 5.114 5.833 3.434-1.925-1.681-6.491-5.063-10.148-7.517-14.824-9.949-22.091-12.061-29.536-8.583M115 75.378c0 .207.787.995 1.75 1.75 1.586 1.243 1.621 1.208.378-.378-1.307-1.666-2.128-2.195-2.128-1.372M132.158 79c0 1.375.227 1.938.504 1.25.278-.687.278-1.812 0-2.5-.277-.687-.504-.125-.504 1.25m-12.061 3.44c1.155 1.958 2.293 3.56 2.527 3.56.711 0-2.535-5.827-3.619-6.497-.554-.343-.063.979 1.092 2.937M133.232 86c0 1.925.206 2.713.457 1.75.252-.963.252-2.537 0-3.5-.251-.963-.457-.175-.457 1.75m56.268 3.715c-4.873 1.176-23.639 7.48-23.294 7.824.21.21 4.534-.953 9.609-2.585 5.075-1.632 12.313-3.497 16.084-4.143 5.993-1.028 7.437-.954 11.468.585 6.282 2.399 8.633 5.619 8.633 11.822 0 11.427-13.288 51.119-19.301 57.651-8.201 8.909-24.616 5.983-40.761-7.266-1.41-1.157-.51-.17 2 2.192 2.509 2.363 7.478 5.738 11.041 7.5 5.759 2.849 7.426 3.205 15 3.205 10.992 0 13.591-1.679 18.452-11.921 7.297-15.378 15.548-42.642 15.562-51.425.014-8.83-6.395-14.24-16.629-14.038-3.225.064-6.764.333-7.864.599m-87.5.663c0 .207.787.995 1.75 1.75 1.586 1.243 1.621 1.208.378-.378-1.307-1.666-2.128-2.195-2.128-1.372m24.954 16.708c-.614 1.147-.874 2.327-.578 2.623.296.296-.281 2.17-1.283 4.165-3.84 7.645-5.723 20.962-4.154 29.375.998 5.349.87 8.055-.886 18.751-2.161 13.16-2.692 25-1.12 25 1.63 0 3.299-7.489 5.571-25 1.229-9.465 2.329-13.957 4.533-18.5 1.601-3.3 3.365-8.937 3.921-12.527 1.082-7 .863-22.835-.343-24.788-1.17-1.893-4.445-1.372-5.661.901M97 145c-.825.533-1.05.969-.5.969s1.675-.436 2.5-.969c.825-.533 1.05-.969.5-.969s-1.675.436-2.5.969m-3.5 5.307c-6.218 3.318-8.708 5.32-11.179 8.987-3.394 5.039-5.068 13.028-3.871 18.477 1.115 5.078 7.151 9.229 13.419 9.229 4.026 0 12.604-4.62 15.408-8.299 2.687-3.526 8.057-13.7 7.516-14.241-.187-.188-1.616 2.094-3.175 5.072-7.366 14.069-21.972 19.778-29.058 11.357-1.855-2.205-2.558-4.191-2.554-7.216.013-10.412 5.213-17.864 16.76-24.023 3.704-1.976 6.284-3.597 5.734-3.602-.55-.006-4.6 1.911-9 4.259m56.701 7.267c6.586 6.806 10.734 13.783 10.777 18.127.048 4.803-2.238 12.288-4.497 14.725-1.896 2.046-3.328 2.574-6.983 2.574-2.528 0-5.934-.691-7.567-1.536-5.161-2.668-10.122-11.155-12.257-20.964-.239-1.1-.267-.047-.061 2.341.72 8.366 6.211 17.417 12.587 20.748 3.5 1.828 10.14 1.804 13.726-.051 3.716-1.921 6.28-8.39 6.356-16.038.088-8.688-3.219-14.199-13.568-22.613-5.069-4.122-5.028-4.047 1.487 2.687" fill="#1976D2" fill-rule="evenodd"/><path fill-opacity=".573" d="M49.833 1.087C30.956 3.595 14.694 14.755 6.975 30.5.313 44.089.5 41.275.5 128c0 71.927.148 79.044 1.767 85C7.945 233.89 22.13 248.076 43 253.737c5.95 1.614 13.141 1.763 85 1.763s79.05-.149 85-1.763c20.695-5.613 35.37-20.186 40.478-40.197.837-3.278 1.522-7.414 1.522-9.191 0-1.777.45-3.509 1-3.849.652-.403 1-25.863 1-73.118 0-48.079-.337-72.292-1-71.882-.601.371-1-.92-1-3.231 0-2.117-.685-6.531-1.522-9.809-5.049-19.779-19.459-34.25-39.978-40.149C208.085.754 200.137.567 132 .394 90.475.288 53.5.6 49.833 1.087M.474 128.5c.001 40.15.124 56.429.276 36.176.151-20.253.151-53.103 0-73C.598 71.779.474 88.35.474 128.5m56.424-57.237c-5.733 3.819-7.041 7.939-7.628 24.036-.519 14.206.895 35.879 2.801 42.964 4.098 15.225 24.853 18.156 46.841 6.616 8.572-4.499 8.162-4.436-4.231.66-15.319 6.298-29.222 5.853-36.234-1.159-4.977-4.977-5.842-10.752-5.899-39.38-.055-27.803.393-29.824 7.233-32.682 7.793-3.256 18.026 1.035 38.768 16.256 13.885 10.19 10.885 6.781-4.085-4.64-18.277-13.945-29.812-17.836-37.566-12.671m58.735 5.237c4.742 6.308 7.566 11.367 10.004 17.923 2.805 7.547 3.091 6.006.358-1.937-2.579-7.497-5.98-13.22-10.093-16.986l-3.277-3 3.008 4m16.01 0c.325 2.2.922 8.5 1.326 14l.734 10 .072-10c.044-6.167-.464-11.533-1.326-14l-1.397-4 .591 4m54.83 13.894c-9.079 2.386-28.68 9.676-31.473 11.705-1.203.874-1.104.941.5.338 28.689-10.789 42.342-13.504 49.891-9.922 7.092 3.366 8.044 8.759 4.17 23.626-6.079 23.325-14.734 43.777-19.842 46.883-10.501 6.386-24.026 1.814-43.719-14.781l-6.5-5.477 7.483 7.247c4.115 3.986 9.74 8.775 12.5 10.642 5.676 3.841 15.934 7.356 21.372 7.323 5.127-.031 11.415-3.154 14.504-7.204 3.612-4.736 11.815-25.787 15.693-40.274 3.888-14.523 4.24-21.291 1.311-25.22-5.127-6.878-12.8-8.326-25.89-4.886m-59.174 15.805c-.567.716-1.288 2.426-1.602 3.801-.315 1.375-1.526 5.149-2.693 8.387-2.519 6.994-3.678 20.58-2.206 25.871.807 2.901.612 6.437-.857 15.5-3.597 22.207-3.623 31.179-.077 26.906 1.454-1.752 3.652-12.769 5.122-25.664.833-7.316 1.932-11.946 3.623-15.266 3.922-7.702 5.486-16.479 5.172-29.022L133.5 105.5l-2.586-.301c-1.422-.165-3.049.285-3.615 1M99.911 146.87c-16.929 7.419-21.89 13.405-21.905 26.43-.012 9.585 5.098 14.271 14.693 13.475 9.338-.774 17.467-8.509 22.106-21.037 2.874-7.759 3.491-10.878 1.137-5.738-5.068 11.06-6.717 13.778-10.97 18.075-7.479 7.558-18.501 8.626-22.712 2.2-2.361-3.605-2.084-12.746.543-17.869 2.891-5.639 5.858-8.027 17.407-14.009 12.011-6.221 11.885-6.867-.299-1.527m47.671 8.673c4.995 4.926 9.832 10.6 10.75 12.608 2.034 4.452 2.172 13.706.274 18.25-3.664 8.769-13.754 8.889-21.335.255-3.881-4.42-6.067-10.224-7.812-20.739l-1.397-8.417.406 8.543c.259 5.459 1.202 10.694 2.611 14.5 6.488 17.522 25.762 20.832 30.399 5.221 3.371-11.353 1.643-16.906-8.339-26.801-4.202-4.164-9.214-8.653-11.139-9.974-1.925-1.322.587 1.628 5.582 6.554" fill="#1976D2" fill-rule="evenodd"/><path fill-opacity=".397" d="M54.227 1.037C37.511 2.723 26.381 7.768 16.369 18.194 9.338 25.517 5.747 32.017 2.752 42.846.711 50.226.621 52.965.239 119.355c-.429 74.624.126 88.051 4.093 98.98 6.772 18.655 20.519 30.679 40.414 35.346 7.137 1.674 13.766 1.819 83.254 1.819s76.117-.145 83.254-1.819c25.197-5.911 41.668-25.026 43.461-50.438.323-4.571.969-8.548 1.436-8.836C257.396 193.637 257.246 61 256 61c-.55 0-1-2.403-1-5.34 0-6.803-3.089-18.928-6.574-25.805-4.082-8.057-14.195-17.961-22.738-22.269C211.939.653 212.627.706 133.5.441 94.45.31 58.777.578 54.227 1.037M.472 128.5c0 36.85.125 51.78.278 33.177.152-18.602.152-48.752-.001-67C.597 76.43.472 91.65.472 128.5M62 69.005c-4.92.855-8.527 3.501-10.641 7.804-1.485 3.023-1.881 6.843-2.188 21.112-.472 21.903 1.041 37.908 4.166 44.076 3.274 6.462 10.923 10.299 20.41 10.24 3.751-.024 8.83-.569 11.286-1.211 4.796-1.253 30.234-13.093 29.566-13.76-.221-.221-6.192 2.087-13.268 5.129-15.687 6.744-24.524 8.551-32.782 6.703-6.583-1.473-11.919-5.6-13.443-10.398-2.659-8.37-4.013-43.499-2.128-55.2.762-4.728 1.612-6.583 4.01-8.75 7.317-6.611 19.463-2.307 42.384 15.02C115.934 102.289 116 102.337 116 101.73c0-.752-15.379-13.636-23.5-19.686C78.619 71.702 69.33 67.73 62 69.005m69.483 7.495c.293 3.3.813 8.755 1.157 12.122.766 7.497-.281 15.378-2.042 15.378-.73 0-1.79-2.281-2.467-5.306C125.934 88.879 116.271 72 112.849 72c-.559 0 .318 1.688 1.95 3.75 7.28 9.2 14.737 27.114 12.301 29.55-.605.605-1.1 2.05-1.1 3.212 0 1.162-.841 3.884-1.869 6.05-3.432 7.232-4.449 14.092-3.829 25.843.44 8.339.108 14.142-1.349 23.578-2.181 14.129-2.482 22.572-.841 23.586 2.528 1.563 4.34-4.749 6.933-24.154 1.062-7.946 2.594-15.46 3.405-16.698 4.04-6.167 7.11-22.399 5.681-30.047-.471-2.517-.444-5.146.061-6.048.547-.978.479-2.369-.177-3.594-.768-1.435-.734-3.821.118-8.448.92-4.994.917-8.386-.013-15.037-1.502-10.733-3.416-15.848-2.637-7.043M189.5 89.12c-10.081 2.316-39.517 13.642-42 16.16-.674.684-.348.773 1 .275 1.1-.406 7.325-2.743 13.834-5.193 30.675-11.546 43.576-12.016 48.59-1.773 1.25 2.553 1.213 3.937-.303 11.3-2.371 11.518-9.893 34.042-14.396 43.111-4.778 9.62-8.094 12.009-16.623 11.976-10.464-.04-18.822-4.416-34.388-18.005-4.557-3.978-8.477-7.041-8.712-6.806-.235.234 4.321 4.758 10.123 10.053 13.496 12.315 21.884 16.935 31.832 17.532 13.458.808 17.978-3.936 26.923-28.25 5.993-16.292 9.981-32.601 9.348-38.225-1.157-10.259-11.594-15.288-25.228-12.155m-88.193 56.822c-16.255 6.867-21.341 11.691-23.318 22.117-1.264 6.665-.434 11.259 2.709 14.994 5.892 7.002 17.533 5.684 25.557-2.895 2.508-2.681 5.439-6.625 6.514-8.766 2.659-5.292 6.572-17.384 5.857-18.099-.318-.319-.877.273-1.242 1.314-5.209 14.868-12.22 25.173-19.074 28.037-5.636 2.355-11.055 1.764-14.387-1.567-2.426-2.426-2.922-3.744-2.917-7.75.014-12.092 4.259-17.225 21.229-25.669 12.994-6.465 12.495-7.387-.928-1.716m44.612 8.627c12.072 11.587 14.579 16.005 13.822 24.355-.661 7.288-2.806 11.446-6.746 13.078-7.013 2.905-17.152-3.938-20.423-13.784-.897-2.702-2.24-9.369-2.984-14.816l-1.352-9.902-.118 8.201c-.2 13.935 2.565 22.797 9.044 28.988 6.524 6.232 14.637 7.183 20.131 2.359 3.898-3.423 5.711-8.566 5.698-16.164-.016-9.211-5.011-15.833-21.635-28.681-7.199-5.565-5.727-3.51 4.563 6.366" fill="#1976D2" fill-rule="evenodd"/></svg>