<svg xmlns="http://www.w3.org/2000/svg" xmlns:xlink="http://www.w3.org/1999/xlink" width="1024" height="1024" viewBox="0 0 1024 1024"><defs><path id="a" d="M1024,705.12633 C1024,717.299774 1024,729.473218 1023.92861,741.664305 C1023.87507,751.914698 1023.75015,762.165091 1023.4646,772.415484 C1022.85782,794.733465 1021.51933,817.280801 1017.50386,839.351785 C1013.43485,861.775622 1006.79594,882.646905 996.284336,903.024192 C985.986887,923.030983 972.530602,941.344077 956.468724,957.222483 C940.406845,973.100889 921.864298,986.421107 901.626331,996.600929 C881.031434,1006.97482 859.936833,1013.55554 837.253891,1017.57807 C814.910033,1021.54767 792.120012,1022.87087 769.526303,1023.47072 C726.087844,1024 713.773737,1024 701.45963,1024 L464.009827,1024 L322.558216,1024 C275.229214,1023.85886 264.860379,1023.753 254.491544,1023.47072 C231.897835,1022.87087 209.107813,1021.54767 186.763956,1017.57807 C164.081014,1013.55554 142.986413,1006.97482 122.391515,996.600929 C102.135702,986.421107 83.6110016,973.100889 67.5491229,957.222483 C51.4872443,941.344077 38.0309593,923.030983 27.7156639,903.024192 C17.2219032,882.646905 10.5829934,861.775622 6.49613758,839.351785 C2.48066792,817.280801 1.16002457,794.733465 0.553242487,772.415484 C0.267697977,762.165091 0.142772255,751.914698 0.0892326591,741.664305 C-1.60522146e-12,729.473218 0,717.299774 0,705.12633 L0,565.290504 L0,458.709496 L0,318.87367 C0,306.700226 0,294.509139 0.0892326591,282.353338 C0.142772255,272.085302 0.267697977,261.834909 0.553242486,251.584516 C1.16002457,229.248892 2.48066792,206.719199 6.49613758,184.630572 C10.5829934,162.206735 17.2219032,141.353095 27.7156639,120.975808 C38.0309593,100.951374 51.4872443,82.63828 67.5491229,66.777517 C83.6110016,50.8814687 102.135702,37.5788933 122.391515,27.3990711 C142.986413,17.0251794 164.081014,10.4444624 186.763956,6.42193295 C209.107813,2.45233154 231.897835,1.12913107 254.491544,0.529280188 C297.930002,0 310.244109,0 322.558216,0 L464.009827,0 L691.358493,0 L559.990173,0.0529280188 L701.45963,0 C748.770786,0.141141383 759.139621,0.246997421 769.526303,0.529280188 C792.120012,1.12913107 814.910033,2.45233154 837.253891,6.42193295 C859.936833,10.4444624 881.031434,17.0251794 901.626331,27.3990711 C921.864298,37.5788933 940.406845,50.8814687 956.468724,66.777517 C972.530602,82.63828 985.986887,100.951374 996.284336,120.975808 C1006.79594,141.353095 1013.43485,162.206735 1017.50386,184.630572 C1021.51933,206.719199 1022.85782,229.248892 1023.4646,251.584516 C1023.75015,261.834909 1023.87507,272.085302 1023.92861,282.353338 C1024,294.509139 1024,306.700226 1024,318.87367 L1024,458.709496 L1024,565.290504 L1024,705.12633 Z"/><path id="b" d="M1024,705.12633 C1024,717.299774 1024,729.473218 1023.92861,741.664305 C1023.87507,751.914698 1023.75015,762.165091 1023.4646,772.415484 C1022.85782,794.733465 1021.51933,817.280801 1017.50386,839.351785 C1013.43485,861.775622 1006.79594,882.646905 996.284336,903.024192 C985.986887,923.030983 972.530602,941.344077 956.468724,957.222483 C940.406845,973.100889 921.864298,986.421107 901.626331,996.600929 C881.031434,1006.97482 859.936833,1013.55554 837.253891,1017.57807 C814.910033,1021.54767 792.120012,1022.87087 769.526303,1023.47072 C726.087844,1024 713.773737,1024 701.45963,1024 L464.009827,1024 L322.558216,1024 C275.229214,1023.85886 264.860379,1023.753 254.491544,1023.47072 C231.897835,1022.87087 209.107813,1021.54767 186.763956,1017.57807 C164.081014,1013.55554 142.986413,1006.97482 122.391515,996.600929 C102.135702,986.421107 83.6110016,973.100889 67.5491229,957.222483 C51.4872443,941.344077 38.0309593,923.030983 27.7156639,903.024192 C17.2219032,882.646905 10.5829934,861.775622 6.49613758,839.351785 C2.48066792,817.280801 1.16002457,794.733465 0.553242487,772.415484 C0.267697977,762.165091 0.142772255,751.914698 0.0892326591,741.664305 C-1.60522146e-12,729.473218 0,717.299774 0,705.12633 L0,565.290504 L0,458.709496 L0,318.87367 C0,306.700226 0,294.509139 0.0892326591,282.353338 C0.142772255,272.085302 0.267697977,261.834909 0.553242486,251.584516 C1.16002457,229.248892 2.48066792,206.719199 6.49613758,184.630572 C10.5829934,162.206735 17.2219032,141.353095 27.7156639,120.975808 C38.0309593,100.951374 51.4872443,82.63828 67.5491229,66.777517 C83.6110016,50.8814687 102.135702,37.5788933 122.391515,27.3990711 C142.986413,17.0251794 164.081014,10.4444624 186.763956,6.42193295 C209.107813,2.45233154 231.897835,1.12913107 254.491544,0.529280188 C297.930002,0 310.244109,0 322.558216,0 L464.009827,0 L691.358493,0 L559.990173,0.0529280188 L701.45963,0 C748.770786,0.141141383 759.139621,0.246997421 769.526303,0.529280188 C792.120012,1.12913107 814.910033,2.45233154 837.253891,6.42193295 C859.936833,10.4444624 881.031434,17.0251794 901.626331,27.3990711 C921.864298,37.5788933 940.406845,50.8814687 956.468724,66.777517 C972.530602,82.63828 985.986887,100.951374 996.284336,120.975808 C1006.79594,141.353095 1013.43485,162.206735 1017.50386,184.630572 C1021.51933,206.719199 1022.85782,229.248892 1023.4646,251.584516 C1023.75015,261.834909 1023.87507,272.085302 1023.92861,282.353338 C1024,294.509139 1024,306.700226 1024,318.87367 L1024,458.709496 L1024,565.290504 L1024,705.12633 Z"/></defs><g fill="none" fill-rule="evenodd"><use xlink:href="#a" fill="#FFF8DB"/><mask id="c" fill="#fff"><use xlink:href="#b"/></mask><use xlink:href="#b" fill="#000" fill-opacity=".1"/><path fill="#FFF8DB" d="M1024,660.12633 C1024,672.299774 1024,684.473218 1023.92861,696.664305 C1023.87507,706.914698 1023.75015,717.165091 1023.4646,727.415484 C1022.85782,749.733465 1021.51933,772.280801 1017.50386,794.351785 C1013.43485,816.775622 1006.79594,837.646905 996.284336,858.024192 C985.986887,878.030983 972.530602,896.344077 956.468724,912.222483 C940.406845,928.100889 921.864298,941.421107 901.626331,951.600929 C881.031434,961.974821 859.936833,968.555538 837.253891,972.578067 C814.910033,976.547668 792.120012,977.870869 769.526303,978.47072 C726.087844,979 713.773737,979 701.45963,979 L464.009827,979 L322.558216,979 C275.229214,978.858859 264.860379,978.753003 254.491544,978.47072 C231.897835,977.870869 209.107813,976.547668 186.763956,972.578067 C164.081014,968.555538 142.986413,961.974821 122.391515,951.600929 C102.135702,941.421107 83.6110016,928.100889 67.5491229,912.222483 C51.4872443,896.344077 38.0309593,878.030983 27.7156639,858.024192 C17.2219032,837.646905 10.5829934,816.775622 6.49613758,794.351785 C2.48066792,772.280801 1.16002457,749.733465 0.553242487,727.415484 C0.267697977,717.165091 0.142772255,706.914698 0.0892326591,696.664305 C-1.60522146e-12,684.473218 0,672.299774 0,660.12633 L0,520.290504 L0,413.709496 L0,273.87367 C0,261.700226 0,249.509139 0.0892326591,237.353338 C0.142772255,227.085302 0.267697977,216.834909 0.553242486,206.584516 C1.16002457,184.248892 2.48066792,161.719199 6.49613758,139.630572 C10.5829934,117.206735 17.2219032,96.3530955 27.7156639,75.9758083 C38.0309593,55.9513745 51.4872443,37.63828 67.5491229,21.777517 C83.6110016,5.88146872 102.135702,-7.42110666 122.391515,-17.6009289 C142.986413,-27.9748206 164.081014,-34.5555376 186.763956,-38.5780671 C209.107813,-42.5476685 231.897835,-43.8708689 254.491544,-44.4707198 C297.930002,-45 310.244109,-45 322.558216,-45 L464.009827,-45 L691.358493,-45 L559.990173,-44.947072 L701.45963,-45 C748.770786,-44.8588586 759.139621,-44.7530026 769.526303,-44.4707198 C792.120012,-43.8708689 814.910033,-42.5476685 837.253891,-38.5780671 C859.936833,-34.5555376 881.031434,-27.9748206 901.626331,-17.6009289 C921.864298,-7.42110666 940.406845,5.88146872 956.468724,21.777517 C972.530602,37.63828 985.986887,55.9513745 996.284336,75.9758083 C1006.79594,96.3530955 1013.43485,117.206735 1017.50386,139.630572 C1021.51933,161.719199 1022.85782,184.248892 1023.4646,206.584516 C1023.75015,216.834909 1023.87507,227.085302 1023.92861,237.353338 C1024,249.509139 1024,261.700226 1024,273.87367 L1024,413.709496 L1024,520.290504 L1024,660.12633 Z" mask="url(#c)"/><g fill-rule="nonzero" mask="url(#c)"><g transform="translate(137 178)"><path fill="#D70057" stroke="#FFF" stroke-width=".76" d="M758.696973,103.780755 C770.467765,115.741705 767.628069,135.264613 763.964355,151.637233 C750.640604,211.194778 739.250458,288.798335 721.869999,347.335365 C708.780777,391.42671 695.038679,464.155879 656.392196,493.966345 C623.545538,519.301755 579.447853,508.507108 544.788354,493.681108 C514.800428,480.85151 485.542811,466.339239 457.141766,450.30974 C466.491527,457.373796 475.809748,464.478817 485.097698,471.622758 C506.433447,488.033409 528.079788,505.160324 542.113462,528.131433 C556.140798,551.102542 561.199006,581.458128 547.951319,604.891956 C533.733825,630.037207 502.015438,640.926933 473.193795,638.89224 C451.832692,637.383652 430.661747,629.726615 414.415899,615.775343 C383.718028,589.406741 374.862995,545.638664 373.772755,505.185678 C372.688853,464.726354 377.354068,423.322577 366.077687,384.454243 L373.062203,388.781441 C372.254056,353.237479 384.507022,332.178089 385.017443,296.081394 C385.131538,287.746126 386.995088,280.932125 390.132698,275.081591 C406.137679,245.264787 454.266717,220.411111 481.845993,202.751754 C554.467406,156.258077 629.085151,109.770738 714.168263,96.4089557 C729.640802,93.987608 747.70583,92.6248077 758.696973,103.780755 Z M51.9997448,3.37220531 C65.7228275,-4.15805902 82.6405679,2.33267387 96.7566442,9.10230543 C174.417249,46.3416178 239.552768,110.049637 295.75719,175.451377 C317.099278,200.286036 356.05635,237.918342 362.819643,271.075592 C364.150751,277.585341 363.97327,284.640209 361.691371,292.664885 C351.812832,327.379833 357.497399,351.067347 346.509583,384.887597 L354.446344,382.749158 C332.483075,416.736765 325.04789,457.74121 312.389693,496.17218 C299.725158,534.609489 278.668307,573.99125 241.688878,590.427256 C222.1216,599.123824 199.644902,600.378868 178.746517,595.688299 C150.565073,589.36237 123.309066,569.820447 116.913412,541.645342 C110.948784,515.390834 124.51974,487.773527 144.549736,469.797239 C164.03713,452.313452 188.843014,442.198803 213.333901,432.840066 L215.402678,432.050838 C226.360485,427.873516 237.336486,423.742109 248.329888,419.656618 C216.510031,426.853599 184.303624,432.355982 151.889842,436.031483 C114.428679,440.272011 69.0886275,437.945742 44.9068443,404.237034 C16.4528405,364.582712 24.1859402,290.972477 24.3190509,244.97955 C24.4838547,183.919755 28.8511545,108.567716 33.1994384,47.691741 C34.3910964,30.9578201 37.2815009,11.4412512 51.9997448,3.37220531 Z"/><path fill="#000" stroke="#000" stroke-width="12.16" d="M405.567204,410.797491 C425.229561,423.525413 443.852387,437.806293 462.107573,452.562568 C479.938073,467.737192 498.193259,482.727996 513.01292,501.959328 C520.391058,511.49893 526.653601,522.280899 530.513813,534.121416 C534.450087,545.942917 535.648084,558.702531 534.830403,570.85364 C534.000046,583.093489 531.93366,594.77554 528.504474,606.666766 C524.935839,618.361494 519.269125,630.537957 508.842117,639.361297 C498.301015,648.045188 485.072344,651.49339 472.376115,651.81032 C459.553115,652.000478 446.888579,648.786805 435.757986,643.03135 C413.338336,631.488748 397.073472,610.907293 387.806429,588.766541 C378.165409,566.556065 374.045315,542.729244 372.555743,519.238368 C371.33873,495.658753 371.997945,472.275634 372.974091,448.892515 C374.869334,472.224925 375.452486,495.658753 378.742222,518.636201 C381.657981,541.581956 387.014104,564.223458 396.800912,584.646447 C406.549688,604.942665 421.375689,622.855566 441.133125,632.30009 C450.862885,637.047706 461.518083,639.697243 472.078201,639.424683 C482.606626,639.107753 493.179421,636.008174 500.747717,629.618859 C508.417431,623.299269 513.412253,613.51246 516.670296,603.034744 C519.864954,592.525335 521.867953,581.046119 522.888469,569.997928 C523.908985,558.867335 523.116659,547.920562 519.947356,537.442846 C516.74636,526.977807 511.567718,517.007179 505.057969,507.778168 C491.975086,489.364517 474.746754,473.321504 458.006495,457.189751 C441.266235,440.975596 423.518138,425.81365 405.567204,410.797491 Z M385.125199,65.7364396 C389.815768,79.5038926 393.137197,93.5882758 396.110004,107.80577 C398.873636,122.061296 400.058956,136.633751 400.54069,151.180853 C400.971715,165.727955 400.451949,180.357458 398.233437,194.752433 C396.526988,205.56789 393.838389,216.200538 390.259289,226.494037 C397.051519,230.288322 401.139036,237.999935 399.938522,246.15853 C399.251808,250.844509 396.936838,254.888183 393.651655,257.800733 C400.491827,275.501846 402.177503,307.411512 396.965716,342.955388 C391.05242,383.255199 377.984094,416.530341 364.627379,428.756303 C354.223629,503.741398 344.736526,617.017518 326.036713,614.273093 C309.49788,611.845207 330.963201,500.335005 342.380975,425.501363 C333.092592,409.963855 330.130359,374.329473 336.045372,334.017953 C341.318329,298.082121 352.280613,267.73492 364.063463,252.914293 C361.999491,249.30006 361.08505,244.992705 361.735742,240.555202 C362.744422,233.672202 367.268794,228.174988 373.219951,225.61266 C368.968798,197.789874 360.24397,170.793256 347.759116,145.812053 C340.799327,132.038262 332.381657,119.139198 323.792846,106.417615 C315.311791,93.5629214 305.632739,81.5702782 295.744513,69.4762174 L296.188215,69.0198377 C308.662593,78.5594402 319.330467,90.2731847 328.946133,102.728546 C338.454042,115.304341 345.889228,129.325338 352.335588,143.625234 C364.096041,169.447844 371.620675,197.127179 374.325518,225.177611 C377.213857,224.138483 380.393028,223.7759 383.641965,224.252307 C385.597309,224.538856 387.440816,225.108915 389.136929,225.914713 C395.936975,201.705973 397.415164,176.340957 395.482482,151.459752 C394.322517,137.178872 391.774397,123.069134 389.853799,108.845301 C388.047297,94.583437 385.632288,80.365943 384.510354,65.8632117 L385.125199,65.7364396 Z M309.049248,396.637045 C287.542356,405.859717 266.19393,415.285225 245.485703,426.010146 C224.821847,436.652667 203.714287,447.066997 185.890126,460.948545 C177.0034,467.914673 169.18156,475.97738 163.109175,485.079619 C157.062145,494.207212 153.163902,504.463077 150.939051,515.422527 C148.745893,526.293237 147.364077,537.867532 147.402109,548.852337 C147.516204,559.818126 149.493849,570.631789 155.027452,578.884654 C160.427945,587.18189 169.663294,593.18455 179.652938,596.518657 C189.69329,599.808394 200.659079,600.334498 211.345969,598.585043 C232.985972,595.212904 252.337737,582.31384 267.506022,565.674998 C282.744031,548.922062 294.381712,528.777971 303.76285,507.63238 C313.517965,486.569191 320.807362,464.295329 329.326449,442.490523 C323.54564,465.163718 317.466917,487.754511 309.524643,509.990342 C301.341502,532.05503 290.553194,553.701371 274.934868,572.203763 C259.696859,590.750525 238.208983,605.792038 213.418694,610.406543 C201.102782,612.726473 188.051591,612.162337 175.818081,608.295787 C163.749375,604.340497 152.073662,597.241258 144.467334,585.895153 C137.013133,574.44763 135.086197,561.155572 135.029149,548.934739 C135.16226,536.549102 136.537738,524.771972 139.257,512.804683 C141.957246,500.932473 146.774587,489.060264 153.943551,478.861446 C161.049128,468.630935 170.132351,460.10551 179.944514,453.088673 C199.663918,438.921888 221.456047,429.806972 242.899552,420.40048 C264.621956,411.501077 286.566211,403.178486 309.049248,396.637045 Z M711.227479,148.277771 C722.186929,149.482107 733.00693,152.771843 742.812754,158.127966 C752.599563,163.471411 761.511643,171.027029 767.736155,180.775806 C774.055745,190.524583 776.895441,202.111555 777.326466,213.197777 C777.795523,224.353725 776.236226,235.173726 774.195194,245.600733 C772.084439,256.02774 769.682107,266.118802 767.216389,276.336635 C762.240583,296.702577 756.529499,316.872023 750.33668,336.883003 C737.551711,376.803545 722.529214,415.874715 705.953759,454.318362 C701.71957,463.965721 697.143096,473.701821 691.134097,482.867445 C685.175807,492.001377 677.601173,500.571173 668.169326,506.897102 C649.109137,519.555299 626.030271,522.160466 604.776924,520.163805 C583.225663,518.192498 562.612515,511.188338 543.742484,501.591688 C524.828083,491.950668 507.42227,479.793221 491.347564,466.311006 C459.362956,439.112046 431.403364,408.21134 399.006747,381.931478 C433.178174,405.948457 462.399149,436.304043 495.252145,461.474649 C511.504332,474.227925 528.770696,485.643755 547.266749,494.403709 C565.718432,503.144647 585.463191,509.179 605.52488,510.440383 C625.434442,511.714443 646.104638,508.538801 662.027217,497.813879 C677.937119,486.974862 687.419674,468.523179 695.361947,449.748227 C711.430315,411.551785 725.945723,372.607388 738.261635,333.067162 C744.568548,313.347757 750.393728,293.463549 755.489967,273.40186 C760.243922,253.314817 766.360677,233.075647 765.821895,213.654157 C765.511304,203.994121 763.223067,194.619322 758.240922,186.772128 C753.303148,178.867885 745.950365,172.402507 737.532695,167.711938 C720.551569,158.140643 700.071532,156.435558 680.035197,158.730133 C659.935477,161.151481 639.747015,166.640714 619.812099,172.136286 C599.870843,177.783984 580.1451,184.268378 560.546129,191.177459 C521.227754,204.67869 482.752414,220.709026 443.97282,235.97239 C519.408574,200.818479 595.395787,165.151141 678.805508,149.108129 C689.397319,147.618458 700.312399,147.073436 711.227479,148.277771 Z M91.6920977,57.3694793 C102.499422,59.353463 112.793318,63.0045003 122.51674,67.4732177 C197.794029,106.810609 260.330719,162.805857 322.49977,218.148229 C289.729175,192.388133 257.484685,165.97516 223.699913,141.742668 C206.908945,129.502819 189.883448,117.624271 172.401572,106.48734 C154.881664,95.4898577 137.120889,84.4353283 118.574127,76.3472666 C100.040042,68.3859771 79.9276443,64.1391108 60.9118253,68.4240087 C51.5116721,70.5030716 42.5995916,74.5787955 35.6081089,80.7335822 C28.5722558,86.8186443 23.6915289,95.1412344 20.6236434,104.306859 C14.5322428,122.752204 14.5639358,143.897794 13.353262,164.504604 C12.4658571,185.181137 12.339085,205.895703 12.7067241,226.60393 C13.1504266,268.014045 15.8696887,309.487546 20.2876973,350.688487 C22.4998709,370.953012 26.2776803,391.356986 38.4034342,406.303419 C50.5672198,421.148435 69.4562667,430.130241 88.8967723,434.630651 C108.476727,439.188109 129.127907,439.086691 149.303691,436.006129 C169.536522,432.931905 189.363683,426.960937 208.588676,419.411657 C247.285867,404.737784 283.992737,384.06125 323.628042,370.87061 C285.044945,386.736142 249.383946,408.30008 210.93396,425.167112 C191.664597,433.458009 171.50149,440.107207 150.615782,443.904032 C129.780783,447.675503 108.033025,448.467829 86.824048,444.163915 C65.8876313,439.967758 44.5328666,430.846503 29.9160403,413.237855 C22.6963677,404.471562 17.9043813,394.088925 14.8111414,383.623886 C11.6925471,373.127154 10.1078955,362.484634 8.82749705,352.025933 C3.99114042,310.438337 0.821837251,268.698614 0.0485272795,226.787749 C-0.135292304,205.844994 0.187976619,184.876884 1.27821691,163.946806 C1.84869148,153.450074 2.44452047,143.092791 3.42700445,132.50098 C4.46653589,121.928185 6.0765419,111.114522 9.73391776,100.567081 C13.3279075,90.0703493 19.374938,79.7827913 28.2363096,72.2652041 C36.9962636,64.715924 47.7021697,60.0316939 58.6109112,57.7307798 C69.5386686,55.4171885 80.8467423,55.3728183 91.6920977,57.3694793 Z"/></g></g></g></svg>