<svg xmlns="http://www.w3.org/2000/svg" width="1024" height="1024" viewBox="0 0 1024 1024"><g fill="none" transform="translate(26 115)"><path fill="#D70057" d="M948.371216,129.725944 C963.084706,144.677131 959.535087,169.080766 954.955444,189.546541 C938.300755,263.993472 924.063072,360.997919 902.337499,434.169206 C885.975971,489.283388 868.798348,580.194849 820.490245,617.457931 C779.431922,649.127193 724.309817,635.633885 680.985442,617.101385 C643.50178,601.06492 606.930945,582.925254 571.430746,562.889172 C583.116477,571.718822 594.763215,580.599314 606.372123,589.528447 L608.211907,590.944656 C634.280823,611.029928 660.503001,632.110494 677.641828,660.164291 C695.175997,688.878178 701.498757,726.82266 684.939148,756.114945 C667.167281,787.546509 627.519298,801.158666 591.492244,798.6153 C564.790865,796.729565 538.327184,787.158269 518.019874,769.719179 C479.647535,736.758426 468.578744,682.04833 467.215944,631.482098 C465.861067,580.907942 471.692585,529.153222 457.597109,480.567804 L466.327782,485.978025 C465.317289,441.547332 480.633772,415.223025 481.271803,370.101742 C481.414422,359.682658 483.74386,351.165156 487.665873,343.851989 C507.672099,306.580984 567.833396,275.513889 602.307491,253.439693 C693.084257,195.322596 786.356438,137.213422 892.710329,120.511195 C912.051002,117.48451 934.632287,115.78101 948.371216,129.725944 Z M64.999681,4.21525664 C82.1535344,-5.19757378 103.30071,2.91584234 120.945805,11.3778818 C218.021561,57.9270223 299.44096,137.562046 369.696488,219.314221 C396.374097,250.357545 445.070438,297.397928 453.524554,338.84449 C455.188438,346.981676 454.966587,355.800262 452.114214,365.831106 C439.766009,409.2249 446.871784,438.83433 433.136876,481.109811 L443.05793,478.436448 C415.603844,520.920957 406.309862,572.176512 390.487116,620.215225 C374.656447,668.261861 348.335384,717.489062 302.111098,738.03407 C277.652,748.90478 249.556128,750.473585 223.433146,744.610374 C188.206342,736.702963 154.136333,712.275559 146.141765,677.056677 C138.68598,644.238543 155.649675,609.716908 180.68717,587.246549 C205.732588,564.776189 237.805936,552.043514 269.253347,540.063548 C282.947669,534.843015 296.664723,529.679852 310.403517,524.574059 C270.6316,533.568013 230.376542,540.445316 189.862303,545.039354 C143.035848,550.340013 86.3607844,547.432178 56.1335554,505.296292 C20.5660506,455.728391 30.2324253,363.715596 30.3988137,306.224437 C30.6048184,229.899693 36.0639431,135.709645 41.499298,59.6146762 C42.9888705,38.6972751 46.6018762,14.301564 64.999681,4.21525664 Z"/><path fill="#000" stroke="#000" stroke-width="15.2" d="M506.959006,513.496864 C531.536952,529.406766 554.815483,547.257866 577.634466,565.703211 C599.922591,584.67149 622.741574,603.409995 641.266151,627.449159 C650.488823,639.373663 658.317002,652.851124 663.142266,667.65177 C668.062609,682.428646 669.560105,698.378164 668.538004,713.56705 C667.500057,728.866861 664.917075,743.469425 660.630593,758.333457 C656.169799,772.951868 649.086406,788.172446 636.052647,799.201621 C622.876269,810.056485 606.34043,814.366737 590.470144,814.7629 C574.441393,815.000598 558.610724,810.983506 544.697483,803.789188 C516.67292,789.360935 496.34184,763.634117 484.758037,735.958177 C472.706762,708.195081 467.556644,678.411554 465.694678,649.047961 C464.173413,619.573441 464.997432,590.344543 466.217613,561.115644 C468.586667,590.281157 469.315607,619.573441 473.427778,648.295251 C477.072477,676.977445 483.76763,705.279322 496.00114,730.808059 C508.187111,756.178331 526.719611,778.569458 551.416406,790.375112 C563.578607,796.309632 576.897603,799.621554 590.097751,799.280854 C603.258282,798.884691 616.474276,795.010218 625.934646,787.023574 C635.521789,779.124086 641.765316,766.890576 645.83787,753.79343 C649.831192,740.656669 652.334942,726.307649 653.610586,712.49741 C654.886231,698.584169 653.895824,684.900703 649.934195,671.803557 C645.932949,658.722258 639.459648,646.258974 631.322462,634.72271 C614.968857,611.705646 593.433442,591.65188 572.508118,571.487189 C551.582794,551.219495 529.397672,532.267062 506.959006,513.496864 Z M481.406499,82.1705495 C487.26971,99.3798657 491.421497,116.985345 495.137505,134.757212 C498.592045,152.576619 500.073694,170.792189 500.675862,188.976066 C501.214644,207.159943 500.564936,225.446822 497.791796,243.440541 C495.658702,256.960067 492.297884,270.251074 487.823908,283.118129 C496.314655,287.860885 501.423758,297.500174 499.923153,307.698163 C499.064792,313.555416 496.171265,318.609847 492.065034,322.250505 C500.614738,344.376436 502.72195,384.263904 496.207145,428.694235 C488.815416,479.069745 472.479633,520.664159 455.783481,535.946058 C442.77943,629.678013 430.920553,771.271882 407.545891,767.841367 C386.872479,764.806528 413.703668,625.420485 427.975954,531.878444 C416.365857,512.45623 412.662831,467.91264 420.056715,417.522441 C426.647852,372.603056 440.350519,334.669335 455.07893,316.143369 C452.499523,311.625824 451.356256,306.241267 452.169677,300.694003 C453.430533,292.090211 459.086047,285.218669 466.525046,282.015779 C461.211068,247.237558 450.305013,213.491669 434.698896,182.265067 C425.999158,165.047827 415.477072,148.923997 404.741057,133.022019 C394.139738,116.953652 382.040923,101.962848 369.680641,86.8452717 L370.235269,86.2747971 C385.828241,98.1993003 399.163084,112.841481 411.182666,128.410683 C423.067553,144.130426 432.361534,161.656673 440.419486,179.531543 C455.119951,211.809584 464.525715,246.408502 467.906828,281.471297 C471.517823,280.173046 475.491542,279.719913 479.552456,280.315384 C481.996853,280.673601 484.301428,281.38627 486.421725,282.39366 C494.921169,252.133309 496.768987,220.426609 494.353102,189.32469 C492.903146,171.47359 489.717996,153.836417 487.317249,136.056627 C485.059121,118.229296 482.040359,100.457429 480.637943,82.3290147 L481.406499,82.1705495 Z M386.311559,495.796306 C359.427945,507.324646 332.742413,519.106531 306.857129,532.512683 C281.027308,545.815833 254.642859,558.833746 232.362658,576.185681 C221.25425,584.893341 211.47695,594.971725 203.886469,606.349524 C196.327681,617.759015 191.454877,630.578846 188.673814,644.278159 C185.932367,657.866547 184.205096,672.334416 184.252636,686.065422 C184.395255,699.772658 186.867311,713.289736 193.784315,723.605818 C200.534931,733.977362 212.079118,741.480687 224.566172,745.648321 C237.116613,749.760492 250.823849,750.418122 264.182462,748.231303 C291.232464,744.01613 315.422171,727.8923 334.382527,707.093748 C353.430039,686.152577 367.977141,660.972464 379.703562,634.540475 C391.897456,608.211489 401.009203,580.369161 411.658061,553.113154 C404.43205,581.454647 396.833646,609.693138 386.905804,637.487927 C376.676878,665.068788 363.191493,692.126714 343.668585,715.254704 C324.621073,738.438156 297.761229,757.240047 266.773367,763.008179 C251.378477,765.908092 235.064489,765.202922 219.772601,760.369734 C204.686718,755.425621 190.092077,746.551573 180.584168,732.368941 C171.266416,718.059537 168.857746,701.444465 168.786437,686.168424 C168.952825,670.686378 170.672172,655.964965 174.07125,641.005854 C177.446557,626.165592 183.468233,611.32533 192.429438,598.576808 C201.31141,585.788669 212.665439,575.131887 224.930642,566.360841 C249.579898,548.652359 276.820058,537.258715 303.62444,525.5006 C330.777445,514.376346 358.207764,503.973108 386.311559,495.796306 Z M889.034349,185.347214 C902.733662,186.852633 916.258663,190.964804 928.515943,197.659957 C940.749453,204.339263 951.889554,213.783787 959.670193,225.969757 C967.569681,238.155728 971.119301,252.639444 971.658082,266.497222 C972.244404,280.442156 970.295282,293.967157 967.743993,307.000916 C965.105548,320.034675 962.102633,332.648502 959.020486,345.420794 C952.800729,370.878222 945.661873,396.090028 937.92085,421.103753 C921.939639,471.004432 903.161518,519.843394 882.442198,567.897953 C877.149462,579.957152 871.42887,592.127276 863.917621,603.584307 C856.469759,615.001721 847.001466,625.713966 835.211658,633.621377 C811.386421,649.444123 782.537839,652.700582 755.971155,650.204756 C729.032078,647.740623 703.265644,638.985423 679.678105,626.989611 C656.035103,614.938335 634.277837,599.741527 614.184455,582.888757 C574.203695,548.890057 539.254205,510.264175 498.758434,477.414348 C541.472717,507.435572 577.998936,545.380054 619.065182,576.843311 C639.380415,592.784906 660.96337,607.054694 684.083436,618.004636 C707.14804,628.930809 731.828989,636.47375 756.9061,638.050479 C781.793053,639.643053 807.630797,635.673501 827.534021,622.267349 C847.421398,608.718578 859.274592,585.653974 869.202434,562.185284 C889.287893,514.439732 907.432154,465.759235 922.827044,416.333952 C930.710686,391.684697 937.99216,366.829437 944.362459,341.752325 C950.304902,316.643521 957.950846,291.344559 957.277369,267.067696 C956.88913,254.992651 954.028834,243.274153 947.801153,233.465159 C941.628935,223.584857 932.437956,215.503134 921.915869,209.639923 C900.689461,197.675803 875.089415,195.544447 850.043997,198.412666 C824.919346,201.439351 799.683769,208.300892 774.765123,215.170357 C749.838554,222.22998 725.181375,230.335473 700.682662,238.971824 C651.534693,255.848363 603.440517,275.886282 554.966025,294.965487 C649.260718,251.023099 744.244734,206.438927 848.506885,186.385161 C861.746649,184.523073 875.390499,183.841795 889.034349,185.347214 Z M114.615122,71.7118491 C128.124277,74.1918288 140.991648,78.7556254 153.145925,84.3415222 C247.242536,133.513261 325.413399,203.507321 403.124713,272.685286 C362.161469,240.485166 321.855856,207.46895 279.624892,177.178335 C258.636181,161.878524 237.354311,147.030339 215.501965,133.109175 C193.60208,119.362322 171.401112,105.54416 148.217659,95.4340833 C125.050053,85.4824713 99.9095554,80.1738885 76.1397817,85.5300109 C64.3895902,88.1288395 53.2494895,93.2234943 44.5101361,100.916978 C35.7153197,108.523305 29.6144111,118.926543 25.7795543,130.383574 C18.1653034,153.440254 18.2049197,179.872243 16.6915775,205.630754 C15.5823214,231.476422 15.4238562,257.369629 15.8834052,283.254912 C16.4380332,335.017556 19.8371109,386.859433 25.3596216,438.360609 C28.1248386,463.691265 32.8471004,489.196232 48.0042928,507.879274 C63.2090248,526.435544 86.8203334,537.662801 111.120965,543.288314 C135.595909,548.985136 161.409883,548.858364 186.629613,545.007661 C211.920653,541.164881 236.704603,533.701172 260.735845,524.264572 C309.107334,505.92223 354.990921,480.076562 404.535053,463.588262 C356.306182,483.420177 311.729933,510.3751 263.66745,531.45889 C239.580746,541.822511 214.376863,550.134009 188.269728,554.88004 C162.225979,559.594379 135.041281,560.584786 108.53006,555.204894 C82.3595391,549.959697 55.6660832,538.558129 37.3950504,516.547318 C28.3704596,505.589453 22.3804767,492.611156 18.5139268,479.529857 C14.6156839,466.408942 12.6348694,453.105792 11.0343713,440.032417 C4.98892552,388.047921 1.02729656,335.873268 0.0606590993,283.484687 C-0.16911538,257.306243 0.234970774,231.096105 1.59777113,204.933508 C2.31086435,191.812593 3.05565059,178.865989 4.28375557,165.626225 C5.58316987,152.410231 7.59567738,138.893153 12.1673972,125.708852 C16.6598844,112.587937 24.2186725,99.7284891 35.2953871,90.3315052 C46.2453295,80.894905 59.6277122,75.0396174 73.2636391,72.1634748 C86.9233357,69.2714856 101.058428,69.2160228 114.615122,71.7118491 Z"/></g></svg>