<svg xmlns="http://www.w3.org/2000/svg" xmlns:xlink="http://www.w3.org/1999/xlink" width="1024" height="1024" viewBox="0 0 1024 1024">
  <defs>
    <path id="rebeltools-logo-full-a" d="M1024,705.12633 C1024,717.299774 1024,729.473218 1023.92861,741.664305 C1023.87507,751.914698 1023.75015,762.165091 1023.4646,772.415484 C1022.85782,794.733465 1021.51933,817.280801 1017.50386,839.351785 C1013.43485,861.775622 1006.79594,882.646905 996.284336,903.024192 C985.986887,923.030983 972.530602,941.344077 956.468724,957.222483 C940.406845,973.100889 921.864298,986.421107 901.626331,996.600929 C881.031434,1006.97482 859.936833,1013.55554 837.253891,1017.57807 C814.910033,1021.54767 792.120012,1022.87087 769.526303,1023.47072 C726.087844,1024 713.773737,1024 701.45963,1024 L464.009827,1024 L322.558216,1024 C275.229214,1023.85886 264.860379,1023.753 254.491544,1023.47072 C231.897835,1022.87087 209.107813,1021.54767 186.763956,1017.57807 C164.081014,1013.55554 142.986413,1006.97482 122.391515,996.600929 C102.135702,986.421107 83.6110016,973.100889 67.5491229,957.222483 C51.4872443,941.344077 38.0309593,923.030983 27.7156639,903.024192 C17.2219032,882.646905 10.5829934,861.775622 6.49613758,839.351785 C2.48066792,817.280801 1.16002457,794.733465 0.553242487,772.415484 C0.267697977,762.165091 0.142772255,751.914698 0.0892326591,741.664305 C-1.60522146e-12,729.473218 0,717.299774 0,705.12633 L0,565.290504 L0,458.709496 L0,318.87367 C0,306.700226 0,294.509139 0.0892326591,282.353338 C0.142772255,272.085302 0.267697977,261.834909 0.553242486,251.584516 C1.16002457,229.248892 2.48066792,206.719199 6.49613758,184.630572 C10.5829934,162.206735 17.2219032,141.353095 27.7156639,120.975808 C38.0309593,100.951374 51.4872443,82.63828 67.5491229,66.777517 C83.6110016,50.8814687 102.135702,37.5788933 122.391515,27.3990711 C142.986413,17.0251794 164.081014,10.4444624 186.763956,6.42193295 C209.107813,2.45233154 231.897835,1.12913107 254.491544,0.529280188 C297.930002,0 310.244109,0 322.558216,0 L464.009827,0 L691.358493,0 L559.990173,0.0529280188 L701.45963,0 C748.770786,0.141141383 759.139621,0.246997421 769.526303,0.529280188 C792.120012,1.12913107 814.910033,2.45233154 837.253891,6.42193295 C859.936833,10.4444624 881.031434,17.0251794 901.626331,27.3990711 C921.864298,37.5788933 940.406845,50.8814687 956.468724,66.777517 C972.530602,82.63828 985.986887,100.951374 996.284336,120.975808 C1006.79594,141.353095 1013.43485,162.206735 1017.50386,184.630572 C1021.51933,206.719199 1022.85782,229.248892 1023.4646,251.584516 C1023.75015,261.834909 1023.87507,272.085302 1023.92861,282.353338 C1024,294.509139 1024,306.700226 1024,318.87367 L1024,458.709496 L1024,565.290504 L1024,705.12633 Z"/>
    <path id="rebeltools-logo-full-b" d="M1024,705.12633 C1024,717.299774 1024,729.473218 1023.92861,741.664305 C1023.87507,751.914698 1023.75015,762.165091 1023.4646,772.415484 C1022.85782,794.733465 1021.51933,817.280801 1017.50386,839.351785 C1013.43485,861.775622 1006.79594,882.646905 996.284336,903.024192 C985.986887,923.030983 972.530602,941.344077 956.468724,957.222483 C940.406845,973.100889 921.864298,986.421107 901.626331,996.600929 C881.031434,1006.97482 859.936833,1013.55554 837.253891,1017.57807 C814.910033,1021.54767 792.120012,1022.87087 769.526303,1023.47072 C726.087844,1024 713.773737,1024 701.45963,1024 L464.009827,1024 L322.558216,1024 C275.229214,1023.85886 264.860379,1023.753 254.491544,1023.47072 C231.897835,1022.87087 209.107813,1021.54767 186.763956,1017.57807 C164.081014,1013.55554 142.986413,1006.97482 122.391515,996.600929 C102.135702,986.421107 83.6110016,973.100889 67.5491229,957.222483 C51.4872443,941.344077 38.0309593,923.030983 27.7156639,903.024192 C17.2219032,882.646905 10.5829934,861.775622 6.49613758,839.351785 C2.48066792,817.280801 1.16002457,794.733465 0.553242487,772.415484 C0.267697977,762.165091 0.142772255,751.914698 0.0892326591,741.664305 C-1.60522146e-12,729.473218 0,717.299774 0,705.12633 L0,565.290504 L0,458.709496 L0,318.87367 C0,306.700226 0,294.509139 0.0892326591,282.353338 C0.142772255,272.085302 0.267697977,261.834909 0.553242486,251.584516 C1.16002457,229.248892 2.48066792,206.719199 6.49613758,184.630572 C10.5829934,162.206735 17.2219032,141.353095 27.7156639,120.975808 C38.0309593,100.951374 51.4872443,82.63828 67.5491229,66.777517 C83.6110016,50.8814687 102.135702,37.5788933 122.391515,27.3990711 C142.986413,17.0251794 164.081014,10.4444624 186.763956,6.42193295 C209.107813,2.45233154 231.897835,1.12913107 254.491544,0.529280188 C297.930002,0 310.244109,0 322.558216,0 L464.009827,0 L691.358493,0 L559.990173,0.0529280188 L701.45963,0 C748.770786,0.141141383 759.139621,0.246997421 769.526303,0.529280188 C792.120012,1.12913107 814.910033,2.45233154 837.253891,6.42193295 C859.936833,10.4444624 881.031434,17.0251794 901.626331,27.3990711 C921.864298,37.5788933 940.406845,50.8814687 956.468724,66.777517 C972.530602,82.63828 985.986887,100.951374 996.284336,120.975808 C1006.79594,141.353095 1013.43485,162.206735 1017.50386,184.630572 C1021.51933,206.719199 1022.85782,229.248892 1023.4646,251.584516 C1023.75015,261.834909 1023.87507,272.085302 1023.92861,282.353338 C1024,294.509139 1024,306.700226 1024,318.87367 L1024,458.709496 L1024,565.290504 L1024,705.12633 Z"/>
  </defs>
  <g fill="none" fill-rule="evenodd">
    <use fill="#EA005F" xlink:href="#rebeltools-logo-full-a"/>
    <mask id="rebeltools-logo-full-c" fill="#fff">
      <use xlink:href="#rebeltools-logo-full-b"/>
    </mask>
    <use fill="#000" opacity=".25" xlink:href="#rebeltools-logo-full-b"/>
    <path fill="#EA005F" d="M1024,660.12633 C1024,672.299774 1024,684.473218 1023.92861,696.664305 C1023.87507,706.914698 1023.75015,717.165091 1023.4646,727.415484 C1022.85782,749.733465 1021.51933,772.280801 1017.50386,794.351785 C1013.43485,816.775622 1006.79594,837.646905 996.284336,858.024192 C985.986887,878.030983 972.530602,896.344077 956.468724,912.222483 C940.406845,928.100889 921.864298,941.421107 901.626331,951.600929 C881.031434,961.974821 859.936833,968.555538 837.253891,972.578067 C814.910033,976.547668 792.120012,977.870869 769.526303,978.47072 C726.087844,979 713.773737,979 701.45963,979 L464.009827,979 L322.558216,979 C275.229214,978.858859 264.860379,978.753003 254.491544,978.47072 C231.897835,977.870869 209.107813,976.547668 186.763956,972.578067 C164.081014,968.555538 142.986413,961.974821 122.391515,951.600929 C102.135702,941.421107 83.6110016,928.100889 67.5491229,912.222483 C51.4872443,896.344077 38.0309593,878.030983 27.7156639,858.024192 C17.2219032,837.646905 10.5829934,816.775622 6.49613758,794.351785 C2.48066792,772.280801 1.16002457,749.733465 0.553242487,727.415484 C0.267697977,717.165091 0.142772255,706.914698 0.0892326591,696.664305 C-1.60522146e-12,684.473218 0,672.299774 0,660.12633 L0,520.290504 L0,413.709496 L0,273.87367 C0,261.700226 0,249.509139 0.0892326591,237.353338 C0.142772255,227.085302 0.267697977,216.834909 0.553242486,206.584516 C1.16002457,184.248892 2.48066792,161.719199 6.49613758,139.630572 C10.5829934,117.206735 17.2219032,96.3530955 27.7156639,75.9758083 C38.0309593,55.9513745 51.4872443,37.63828 67.5491229,21.777517 C83.6110016,5.88146872 102.135702,-7.42110666 122.391515,-17.6009289 C142.986413,-27.9748206 164.081014,-34.5555376 186.763956,-38.5780671 C209.107813,-42.5476685 231.897835,-43.8708689 254.491544,-44.4707198 C297.930002,-45 310.244109,-45 322.558216,-45 L464.009827,-45 L691.358493,-45 L559.990173,-44.947072 L701.45963,-45 C748.770786,-44.8588586 759.139621,-44.7530026 769.526303,-44.4707198 C792.120012,-43.8708689 814.910033,-42.5476685 837.253891,-38.5780671 C859.936833,-34.5555376 881.031434,-27.9748206 901.626331,-17.6009289 C921.864298,-7.42110666 940.406845,5.88146872 956.468724,21.777517 C972.530602,37.63828 985.986887,55.9513745 996.284336,75.9758083 C1006.79594,96.3530955 1013.43485,117.206735 1017.50386,139.630572 C1021.51933,161.719199 1022.85782,184.248892 1023.4646,206.584516 C1023.75015,216.834909 1023.87507,227.085302 1023.92861,237.353338 C1024,249.509139 1024,261.700226 1024,273.87367 L1024,413.709496 L1024,520.290504 L1024,660.12633 Z" mask="url(#rebeltools-logo-full-c)"/>
    <g fill-rule="nonzero" mask="url(#rebeltools-logo-full-c)">
      <g transform="translate(196 240)">
        <path fill="#0031EA" d="M647.99814,91.454457 C658.02594,101.644257 655.60674,118.276257 652.48554,132.224457 C641.13474,182.962857 629.78394,233.766057 614.97714,283.635057 C603.82614,321.197457 592.11894,383.157057 559.19514,408.553257 C531.21234,430.137057 493.64454,420.940857 464.11734,408.310257 C438.57253,397.381538 413.649762,385.0196 389.456568,371.365348 C397.41883,377.382529 405.355072,383.433824 413.26554,389.518257 C431.44194,403.498857 449.88294,418.089657 461.83854,437.659257 C473.78874,457.228857 478.09794,483.089457 466.81194,503.053257 C454.69974,524.475057 427.67814,533.752257 403.12434,532.018857 C384.92634,530.733657 366.89034,524.210457 353.05014,512.325057 C326.89794,489.861057 319.35414,452.574057 318.42534,418.111257 C317.50194,383.643057 321.47634,348.370257 311.86974,315.257457 L317.820033,318.94513 C317.131243,288.663688 327.570095,270.722654 328.00494,239.970657 C328.10214,232.869657 329.68974,227.064657 332.36274,222.080457 C345.99774,196.678857 386.99994,175.505457 410.49534,160.461057 C472.36314,120.852057 537.57894,96.557457 610.06314,85.174257 C623.24454,83.111457 638.63454,81.950457 647.99814,91.454457 Z M44.2997415,2.87285686 C55.9907415,-3.54234315 70.4033415,1.98725686 82.4291415,7.75445685 C148.589942,39.479457 204.080342,81.486057 251.962142,137.203257 C270.143942,158.360457 303.33234,190.420257 309.09414,218.667657 C310.22814,224.213457 310.07694,230.223657 308.13294,237.060057 C299.717197,266.634477 304.559996,286.814391 295.199253,315.626588 L301.96074,313.804857 C283.249742,342.759657 276.915542,377.692257 266.131742,410.432457 C255.342542,443.178057 237.403742,476.728257 205.900142,490.730457 C189.230342,498.139257 170.081942,499.208457 152.278142,495.212457 C128.269742,489.823257 105.049742,473.175057 99.6011415,449.172057 C94.5197415,426.805257 106.081141,403.277457 123.145141,387.963057 C140.214541,372.648657 162.073742,363.970857 183.506342,355.806057 C192.840474,352.24771 202.190103,348.728471 211.554552,345.248339 C184.447683,351.378761 157.01134,356.066132 129.398342,359.197257 C97.4843415,362.809857 58.8581415,360.828057 38.2571415,332.110857 C14.0165415,298.328457 20.6045415,235.618257 20.7179415,196.435857 C20.8583415,144.417657 24.5789415,92.491257 28.2833415,40.629657 C29.2985415,26.3736569 31.7609415,9.74705685 44.2997415,2.87285686 Z"/>
        <path fill="#FFF" d="M345.51174,337.699857 C362.26254,348.543057 378.12774,360.709257 393.67974,373.280457 C408.86994,386.208057 424.42194,398.979057 437.04714,415.362657 C443.33274,423.489657 448.66794,432.675057 451.95654,442.762257 C455.30994,452.833257 456.33054,463.703457 455.63394,474.055257 C454.92654,484.482657 453.16614,494.434857 450.24474,504.565257 C447.20454,514.528257 442.37694,524.901657 433.49394,532.418457 C424.51374,539.816457 413.24394,542.754057 402.42774,543.024057 C391.50354,543.186057 380.71434,540.448257 371.23194,535.545057 C352.13214,525.711657 338.27574,508.177857 330.38094,489.315657 C322.16754,470.394057 318.65754,450.095457 317.38854,430.083057 C316.35174,409.995057 316.91334,390.074457 317.74494,370.153857 C319.35954,390.031257 319.85634,409.995057 322.65894,429.570057 C325.14294,449.118057 329.70594,468.406857 338.04354,485.805657 C346.34874,503.096457 358.97934,518.356857 375.81114,526.402857 C384.10014,530.447457 393.17754,532.704657 402.17394,532.472457 C411.14334,532.202457 420.15054,529.561857 426.59814,524.118657 C433.13214,518.734857 437.38734,510.397257 440.16294,501.471057 C442.88454,492.517857 444.59094,482.738457 445.46034,473.326257 C446.32974,463.843857 445.65474,454.518057 442.95474,445.591857 C440.22774,436.676457 435.81594,428.182257 430.27014,420.319857 C419.12454,404.632857 404.44734,390.965457 390.18594,377.222457 C375.92454,363.409257 360.80454,350.492457 345.51174,337.699857 Z M328.09674,43.734657 C332.09274,55.463457 334.92234,67.462257 337.45494,79.574457 C339.80934,91.719057 340.81914,104.133657 341.22954,116.526657 C341.59674,128.919657 341.15394,141.382857 339.26394,153.646257 C337.810133,162.860473 335.519558,171.91894 332.470301,180.688456 C338.256847,183.919711 341.739313,190.489577 340.71654,197.440257 C340.131545,201.432128 338.159555,204.876864 335.361079,207.358101 C341.187809,222.436524 342.624138,249.621947 338.18394,279.903657 C333.146199,314.236465 322.012748,342.584627 310.633692,352.999825 C301.770897,416.882116 293.688624,513.383278 277.757941,511.045257 C263.668196,508.976895 281.954786,413.979593 291.681871,350.22715 C283.768965,336.989219 281.245447,306.631688 286.284541,272.289657 C290.776623,241.675585 300.115422,215.822448 310.153321,203.196216 C308.395583,200.117297 307.616349,196.447425 308.17074,192.666657 C309.030037,186.803012 312.884292,182.119894 317.954041,179.936924 C314.332966,156.234613 306.900027,133.23522 296.263741,111.952857 C290.334541,100.218657 283.163341,89.229657 275.846341,78.391857 C268.621141,67.440657 260.375341,57.223857 251.951341,46.920657 L252.329341,46.531857 C262.956541,54.658857 272.044741,64.638057 280.236541,75.249057 C288.336541,85.962657 294.670741,97.907457 300.16254,110.089857 C310.181458,132.088553 316.591841,155.669012 318.8962,179.565621 C321.357124,178.680861 324.065417,178.372013 326.83314,178.777857 C328.498736,179.021944 330.069079,179.507501 331.513889,180.193845 C337.307518,159.570388 338.566845,137.961235 336.92034,116.764257 C335.93214,104.598057 333.76134,92.577657 332.12514,80.460057 C330.58614,68.310057 328.52874,56.197857 327.57294,43.842657 L328.09674,43.734657 Z M263.285941,325.636257 C244.963741,333.493257 226.776541,341.523057 209.134741,350.659857 C191.530741,359.726457 173.548741,368.598657 158.363941,380.424657 C150.793141,386.359257 144.129541,393.228057 138.956341,400.982457 C133.804741,408.758457 130.483741,417.495657 128.588341,426.832257 C126.719941,436.093257 125.542741,445.953657 125.575141,455.311857 C125.672341,464.653857 127.357141,473.866257 132.071341,480.897057 C136.672141,487.965657 144.539941,493.079457 153.050341,495.919857 C161.603941,498.722457 170.945941,499.170657 180.050341,497.680257 C198.485941,494.807457 214.972141,483.818457 227.894341,469.643457 C240.875941,455.371257 250.790341,438.210057 258.782341,420.195657 C267.092941,402.251457 273.302941,383.275857 280.560541,364.699857 C275.635741,384.015657 270.457141,403.261257 263.690941,422.204457 C256.719541,441.001857 247.528741,459.442857 234.223141,475.205457 C221.241541,491.005857 202.935541,503.820057 181.816141,507.751257 C171.323941,509.727657 160.205341,509.247057 149.783341,505.953057 C139.501741,502.583457 129.554941,496.535457 123.074941,486.869457 C116.724541,477.117057 115.082941,465.793257 115.034341,455.382057 C115.147741,444.830457 116.319541,434.797257 118.636141,424.602057 C120.936541,414.487857 125.040541,404.373657 131.147941,395.685057 C137.201341,386.969457 144.939541,379.706457 153.298741,373.728657 C170.098141,361.659657 188.663341,353.894457 206.931541,345.880857 C225.437341,338.299257 244.132141,331.209057 263.285941,325.636257 Z M605.91054,114.053457 C615.24714,115.079457 624.46494,117.882057 632.81874,122.445057 C641.15634,126.997257 648.74874,133.434057 654.05154,141.739257 C659.43534,150.044457 661.85454,159.915657 662.22174,169.360257 C662.62134,178.864257 661.29294,188.082057 659.55414,196.965057 C657.75594,205.848057 655.70934,214.444857 653.60874,223.149657 C649.36974,240.499857 644.50434,257.682657 639.22854,274.730457 C628.33674,308.739657 615.53874,342.025257 601.41774,374.776257 C597.81054,382.995057 593.91174,391.289457 588.79254,399.097857 C583.71654,406.879257 577.26354,414.180057 569.22834,419.569257 C552.99054,430.353057 533.32914,432.572457 515.22294,430.871457 C496.86294,429.192057 479.30214,423.225057 463.22634,415.049457 C447.11274,406.836057 432.28434,396.478857 418.58994,384.993057 C391.34154,361.821657 367.52214,335.496657 339.92274,313.108257 C369.03414,333.568857 393.92814,359.429457 421.91634,380.872857 C435.76194,391.737657 450.47154,401.463057 466.22874,408.925857 C481.94814,416.372457 498.76914,421.513257 515.86014,422.587857 C532.82154,423.673257 550.43094,420.967857 563.99574,411.831057 C577.54974,402.597057 585.62814,386.877657 592.39434,370.882857 C606.08334,338.342457 618.44934,305.164857 628.94154,271.479657 C634.31454,254.680257 639.27714,237.740457 643.61874,220.649457 C647.66874,203.536857 652.87974,186.294657 652.42074,169.749057 C652.15614,161.519457 650.20674,153.532857 645.96234,146.847657 C641.75574,140.113857 635.49174,134.605857 628.32054,130.609857 C613.85394,122.455857 596.40654,121.003257 579.33714,122.958057 C562.21374,125.020857 545.01474,129.697257 528.03174,134.379057 C511.04334,139.190457 494.23854,144.714657 477.54174,150.600657 C444.04554,162.102657 411.26754,175.759257 378.23034,188.762457 C442.49574,158.814057 507.23094,128.428257 578.28954,114.760857 C587.31294,113.491774 596.61174,113.027457 605.91054,114.053457 Z M78.1145415,36.606657 C87.3215415,38.296857 96.0911415,41.407257 104.374741,45.214257 C168.505141,78.726657 221.781541,126.430257 274.744741,173.577657 C246.826741,151.632057 219.356941,129.130257 190.574941,108.486057 C176.270341,98.058657 161.765941,87.939057 146.872741,78.451257 C131.947141,69.082257 116.816341,59.664657 101.015941,52.774257 C85.2263415,45.991857 68.0921415,42.373857 51.8921415,46.024257 C43.8839415,47.795457 36.2915415,51.267657 30.3353415,56.511057 C24.3413415,61.695057 20.1833415,68.785257 17.5697415,76.593657 C12.3803415,92.307657 12.4073415,110.322057 11.3759415,127.877457 C10.6199415,145.492257 10.5119415,163.139457 10.8251415,180.781257 C11.2031415,216.059457 13.5197415,251.391657 17.2835415,286.491657 C19.1681415,303.755457 22.3865415,321.138057 32.7167415,333.871257 C43.0793415,346.518057 59.1713415,354.169857 75.7331415,358.003857 C92.4137415,361.886457 110.006941,361.800057 127.195141,359.175657 C144.431941,356.556657 161.323141,351.469857 177.701341,345.038457 C210.668341,332.537457 241.939741,314.922657 275.705941,303.685257 C242.836141,317.201457 212.455741,335.572257 179.699341,349.941657 C163.283341,357.004857 146.105941,362.669457 128.312941,365.904057 C110.563141,369.117057 92.0357415,369.792057 73.9673415,366.125457 C56.1311415,362.550657 37.9385415,354.780057 25.4861415,339.778857 C19.3355415,332.310657 15.2531415,323.465457 12.6179415,314.550057 C9.96114147,305.607657 8.61114147,296.541057 7.52034147,287.631057 C3.40014147,252.201657 0.70014147,216.642657 0.0413414709,180.937857 C-0.115258529,163.096257 0.160141471,145.233057 1.08894147,127.402257 C1.57494147,118.459857 2.08254147,109.636257 2.91954147,100.612857 C3.80514147,91.605657 5.17674147,82.393257 8.29254147,73.407657 C11.3543415,64.465257 16.5059415,55.701057 24.0551415,49.296657 C31.5179415,42.865257 40.6385415,38.874657 49.9319415,36.914457 C59.2415415,34.943457 68.8751415,34.905657 78.1145415,36.606657 Z"/>
      </g>
    </g>
  </g>
</svg>
